# xmcd CD database file
#
# Track frame offsets:
#	150
#	12373
#	25343
#	39075
#	53168
#	67993
#	83528
#	96195
#	109315
#	122193
#	135148
#	148358
#	160995
#	173460
#	186078
#	198700
#	210515
#	224518
#	237678
#	251018
#	266445
#	280008
#	294133
#
# Disc length: 4119 seconds
#
# Revision: 2
# Processed by: cddbd v1.5.2PL0 Copyright (c) Steve Scherf et al.
# Submitted via: CDex 1.99.1
#
DISCID=4b101517
DTITLE=Henry Thomas - Texas Worried Blues  Henry Thomas Complete Recorded Works, 1927-1929
DYEAR=1900
DGENRE=Blues
TTITLE0=Fishing Blues
TTITLE1=Old Country Stomp
TTITLE2=Charmin' Betsy
TTITLE3=Lovin' Babe
TTITLE4=Railroadin' Some
TTITLE5=Don't Leave Me Here
TTITLE6=The Little Red Caboose
TTITLE7=Bob Mckinney
TTITLE8=Honey, Won't You Allow Me One More Chance?
TTITLE9=Run, Mollie, Run
TTITLE10=Shanty Blues
TTITLE11=Woodhouse Blues
TTITLE12=John Henry
TTITLE13=Cottonfield Blues
TTITLE14=Arkansas
TTITLE15=The Fox And The Hounds
TTITLE16=Red River Blues
TTITLE17=Jonah In The Wilderness
TTITLE18=When The Train Comes Along
TTITLE19=Bull Doze Blues
TTITLE20=Don't Ease Me In
TTITLE21=Texas Easy Street
TTITLE22=Texas Worried Blues
EXTD=
EXTT0=
EXTT1=
EXTT2=
EXTT3=
EXTT4=
EXTT5=
EXTT6=
EXTT7=
EXTT8=
EXTT9=
EXTT10=
EXTT11=
EXTT12=
EXTT13=
EXTT14=
EXTT15=
EXTT16=
EXTT17=
EXTT18=
EXTT19=
EXTT20=
EXTT21=
EXTT22=
PLAYORDER=
